M48
; DRILL file {KiCad 5.1.9} date Tue Mar 23 21:53:36 2021
; FORMAT={-:-/ absolute / metric / decimal}
; #@! TF.CreationDate,2021-03-23T21:53:36+01:00
; #@! TF.GenerationSoftware,Kicad,Pcbnew,5.1.9
; #@! TF.FileFunction,Plated,1,2,PTH
FMAT,2
METRIC
T1C1.000
%
G90
G05
T1
X2.54Y8.255
X3.175Y20.955
X5.715Y35.56
X12.065Y46.99
X17.145Y31.75
X17.145Y19.05
X19.616Y52.01
X19.685Y31.75
X19.685Y19.05
X22.156Y52.01
X22.225Y31.75
X22.225Y19.05
X22.225Y10.16
X22.225Y3.175
X24.696Y52.01
X24.765Y31.75
X24.765Y19.05
X24.765Y10.16
X27.236Y52.01
X27.305Y31.75
X27.305Y19.05
X27.305Y10.16
X27.845Y37.465
X28.76Y3.75
X29.21Y27.305
X29.776Y52.01
X29.845Y37.465
X29.845Y31.75
X29.845Y19.05
X29.845Y10.16
X31.3Y3.75
X32.316Y52.01
X32.385Y31.75
X32.385Y19.05
X33.655Y45.72
X33.655Y43.18
X33.655Y40.64
X33.84Y3.75
X34.195Y13.97
X34.856Y52.01
X34.925Y31.75
X34.925Y19.05
X36.195Y13.97
X36.38Y3.75
X37.396Y52.01
X38.1Y45.72
X38.1Y43.18
X38.1Y40.64
X38.1Y26.035
X38.1Y20.955
X38.92Y3.75
X39.936Y52.01
X40.64Y11.43
X41.275Y31.75
X41.275Y19.05
X41.46Y3.75
X42.476Y52.01
X42.545Y45.72
X42.545Y43.18
X42.545Y40.64
X43.815Y31.75
X43.815Y19.05
X44.0Y3.75
X44.45Y7.62
X46.355Y31.75
X46.355Y27.305
X46.355Y19.05
X46.355Y10.16
X46.54Y52.01
X46.54Y3.75
X46.99Y45.72
X46.99Y43.18
X46.99Y40.64
X48.895Y31.75
X48.895Y19.05
X48.895Y10.16
X49.08Y52.01
X51.435Y45.72
X51.435Y43.18
X51.435Y40.64
X51.435Y31.75
X51.435Y19.05
X51.435Y10.16
X51.62Y52.01
X51.62Y3.75
X53.975Y48.26
X53.975Y31.75
X53.975Y19.05
X53.975Y10.16
X54.16Y52.01
X54.16Y3.75
X55.88Y45.72
X55.88Y43.18
X55.88Y40.64
X56.515Y31.75
X56.515Y19.05
X56.7Y52.01
X56.7Y3.75
X58.325Y13.97
X59.055Y31.75
X59.055Y19.05
X59.24Y52.01
X59.24Y3.75
X60.325Y13.97
X61.595Y47.625
X61.595Y43.125
X61.78Y52.01
X61.78Y3.75
X64.32Y52.01
X64.32Y3.75
X66.675Y29.21
X66.675Y26.67
X66.675Y22.86
X66.675Y12.7
X67.31Y33.02
X67.31Y17.78
X67.31Y3.175
X68.095Y47.625
X68.095Y43.125
T1
G00X6.065Y14.97
M15
G01X6.065Y12.97
M16
G05
G00X8.065Y9.27
M15
G01X10.065Y9.27
M16
G05
G00X12.065Y14.97
M15
G01X12.065Y12.97
M16
G05
T0
M30
