<?xml version="1.0" encoding="UTF-8" standalone="no"?>
<svg
   xmlns:dc="http://purl.org/dc/elements/1.1/"
   xmlns:cc="http://creativecommons.org/ns#"
   xmlns:rdf="http://www.w3.org/1999/02/22-rdf-syntax-ns#"
   xmlns:svg="http://www.w3.org/2000/svg"
   xmlns="http://www.w3.org/2000/svg"
   xmlns:sodipodi="http://sodipodi.sourceforge.net/DTD/sodipodi-0.dtd"
   xmlns:inkscape="http://www.inkscape.org/namespaces/inkscape"
   width="793.700787402"
   height="1122.51968504"
   version="1.1"
   id="svg896"
   sodipodi:docname="découpe_Makers_v3.svg"
   inkscape:version="0.92.4 (5da689c313, 2019-01-14)">
  <metadata
     id="metadata900">
    <rdf:RDF>
      <cc:Work
         rdf:about="">
        <dc:format>image/svg+xml</dc:format>
        <dc:type
           rdf:resource="http://purl.org/dc/dcmitype/StillImage" />
        <dc:title></dc:title>
      </cc:Work>
    </rdf:RDF>
  </metadata>
  <sodipodi:namedview
     pagecolor="#ffffff"
     bordercolor="#666666"
     borderopacity="1"
     objecttolerance="10"
     gridtolerance="10"
     guidetolerance="10"
     inkscape:pageopacity="0"
     inkscape:pageshadow="2"
     inkscape:window-width="1600"
     inkscape:window-height="837"
     id="namedview898"
     showgrid="false"
     inkscape:zoom="0.67780274"
     inkscape:cx="340.31652"
     inkscape:cy="638.97035"
     inkscape:window-x="1592"
     inkscape:window-y="-8"
     inkscape:window-maximized="1"
     inkscape:current-layer="g894" />
  <desc
     id="desc815">D:\Stockage\Documents\Enseirb\I2\MakerPlotter\Meca\modele_3d\nouveau_modèle\corps.DXF - scale = 1.000000, origin = (0.000000, 0.000000), method = manual</desc>
  <defs
     id="defs830">
    <marker
       id="DistanceX"
       orient="auto"
       refX="0.0"
       refY="0.0"
       style="overflow:visible">
      <path
         d="M 3,-3 L -3,3 M 0,-5 L  0,5"
         style="stroke:#000000; stroke-width:0.5"
         id="path817" />
    </marker>
    <pattern
       height="8"
       id="Hatch"
       patternUnits="userSpaceOnUse"
       width="8"
       x="0"
       y="0">
      <path
         d="M8 4 l-4,4"
         linecap="square"
         stroke="#000000"
         stroke-width="0.25"
         id="path820" />
      <path
         d="M6 2 l-4,4"
         linecap="square"
         stroke="#000000"
         stroke-width="0.25"
         id="path822" />
      <path
         d="M4 0 l-4,4"
         linecap="square"
         stroke="#000000"
         stroke-width="0.25"
         id="path824" />
    </pattern>
    <symbol
       id="*Model_Space" />
    <symbol
       id="*Paper_Space" />
    <symbol
       id="*Paper_Space0" />
  </defs>
  <g
     inkscape:groupmode="layer"
     inkscape:label="0"
     id="g894">
    <path
       style="fill:#000000;stroke-width:3.0144906"
       d="m 485.80831,966.04613 c -37.25735,-1.82769 -51.77675,-42.73253 -57.06949,-73.91448 -7.52658,-52.17891 -2.70869,-109.25806 25.45365,-154.93019 10.43993,-11.42601 38.4934,-39.75385 47.17246,-31.13363 -5.29685,36.36043 4.07078,74.84506 29.49626,102.05134 20.93311,30.38657 52.44636,56.44829 60.39316,93.79187 -2.10499,25.81652 -32.07519,35.69678 -50.9929,48.05343 -16.97947,8.2219 -35.21605,16.42845 -54.45314,16.08166 z M 716.08595,766.21899 c -54.76262,8.52042 -115.2695,5.83072 -163.90122,-23.17038 -13.49893,-13.02033 -34.3048,-31.98184 -35.32374,-48.32263 26.45363,2.22315 53.17717,0.86418 77.08689,-12.1155 43.28495,-20.08613 72.21349,-63.96723 118.4061,-78.60824 28.20238,-2.67121 38.65106,31.73249 50.79156,51.21613 11.34435,25.02323 29.0902,58.01425 6.57176,82.32702 -13.48542,15.84739 -33.5265,24.81685 -53.63135,28.6736 z M 294.09428,776.5177 c -25.55396,-5.20592 -32.99391,-35.99541 -45.75666,-55.63093 -11.08146,-22.13942 -23.26998,-50.28919 -6.72741,-73.07052 24.1029,-34.33799 70.96467,-36.08815 109.17726,-36.12768 23.70352,-0.34278 46.98836,3.5832 69.34613,8.79951 29.8438,9.6435 58.41572,27.444 72.93587,56.20618 12.88801,18.85326 -32.26745,1.84769 -43.44929,9.98556 -38.59389,5.3975 -64.60371,37.72554 -95.18488,58.6181 -18.44818,12.66245 -37.2427,29.1785 -60.34102,31.21978 z m 216.25596,-97.82551 c 7.05276,-35.4887 -3.45046,-73.50567 -26.98963,-100.94481 -20.21839,-30.22421 -49.62611,-55.23799 -61.95296,-90.13807 -6.65605,-29.24915 27.52259,-40.11956 47.08157,-52.62504 26.34377,-15.53737 65.10081,-29.15619 90.04378,-3.64801 14.66949,23.35774 23.42062,51.16159 27.75044,78.41464 2.04502,50.18525 -6.24374,103.55354 -36.07217,145.10046 -11.71109,8.96389 -25.60229,21.97186 -39.86103,23.84083 z"
       id="path6031"
       inkscape:connector-curvature="0" />
    <g
       transform="translate(445.59388,-208.28977)"
       id="g1572"
       style="fill:none;stroke:#ff0000;stroke-width:0.37795275;stroke-miterlimit:4;stroke-dasharray:none;stroke-opacity:1">
      <path
         inkscape:connector-curvature="0"
         id="path952"
         style="fill:none;stroke:#ff0000;stroke-width:0.37795275;stroke-linecap:round;stroke-miterlimit:4;stroke-dasharray:none;stroke-opacity:1"
         d="m -85.058751,824.23229 a 5.669291,5.669291 0 1 0 -11.338582,0 5.669291,5.669291 0 1 0 11.338582,0 z" />
      <path
         inkscape:connector-curvature="0"
         id="path954"
         style="fill:none;stroke:#ff0000;stroke-width:0.37795275;stroke-linecap:round;stroke-miterlimit:4;stroke-dasharray:none;stroke-opacity:1"
         d="m -85.058751,965.29923 a 5.669291,5.669291 0 1 0 -11.338582,0 5.669291,5.669291 0 1 0 11.338582,0 z" />
      <path
         inkscape:connector-curvature="0"
         id="path956"
         style="fill:none;stroke:#ff0000;stroke-width:0.37795275;stroke-linecap:round;stroke-miterlimit:4;stroke-dasharray:none;stroke-opacity:1"
         d="m -8.175629,1049.7114 a 5.669291,5.669291 0 1 0 -11.338582,0 5.669291,5.669291 0 1 0 11.338582,0 z" />
      <path
         inkscape:connector-curvature="0"
         id="path958"
         style="fill:none;stroke:#ff0000;stroke-width:0.37795275;stroke-linecap:round;stroke-miterlimit:4;stroke-dasharray:none;stroke-opacity:1"
         d="m 132.89131,1049.7114 a 5.6692915,5.6692915 0 1 0 -11.33858,0 5.6692915,5.6692915 0 1 0 11.33858,0 z" />
      <path
         inkscape:connector-curvature="0"
         id="path960"
         style="fill:none;stroke:#ff0000;stroke-width:0.37795275;stroke-linecap:round;stroke-miterlimit:4;stroke-dasharray:none;stroke-opacity:1"
         d="m 217.30345,972.82825 a 5.6692915,5.6692915 0 1 0 -11.33858,0 5.6692915,5.6692915 0 1 0 11.33858,0 z" />
      <path
         inkscape:connector-curvature="0"
         id="path962"
         style="fill:none;stroke:#ff0000;stroke-width:0.37795275;stroke-linecap:round;stroke-miterlimit:4;stroke-dasharray:none;stroke-opacity:1"
         d="m 217.30345,831.76131 a 5.6692915,5.6692915 0 1 0 -11.33858,0 5.6692915,5.6692915 0 1 0 11.33858,0 z" />
      <path
         inkscape:connector-curvature="0"
         id="path964"
         style="fill:none;stroke:#ff0000;stroke-width:0.37795275;stroke-linecap:round;stroke-miterlimit:4;stroke-dasharray:none;stroke-opacity:1"
         d="m 140.42033,747.34917 a 5.669291,5.669291 0 1 0 -11.33858,0 5.669291,5.669291 0 1 0 11.33858,0 z" />
      <path
         inkscape:connector-curvature="0"
         id="path966"
         style="fill:none;stroke:#ff0000;stroke-width:0.37795275;stroke-linecap:round;stroke-miterlimit:4;stroke-dasharray:none;stroke-opacity:1"
         d="m -0.646606,747.34917 a 5.6692915,5.6692915 0 1 0 -11.338583,0 5.6692915,5.6692915 0 1 0 11.338583,0 z" />
      <path
         inkscape:connector-curvature="0"
         id="path968"
         style="fill:none;stroke:#ff0000;stroke-width:0.37795275;stroke-linecap:round;stroke-miterlimit:4;stroke-dasharray:none;stroke-opacity:1"
         d="m -13.387063,1148.7542 c 0.611899,1.5556 1.273391,3.1135 1.960818,4.6155 0.687428,1.5021 1.400792,2.9484 2.145049,4.3535 1.488516,2.8102 3.100609,5.4558 4.824715,7.9258 1.724107,2.4701 3.560226,4.7646 5.499296,6.8861 1.93907,2.1214 3.981089,4.0698 6.112506,5.8433 4.262833,3.547 8.883252,6.3946 13.729682,8.5742 4.84643,2.1796 9.91887,3.691 15.103393,4.6133 5.184522,0.9222 10.481128,1.2551 15.813206,1.0855 5.332077,-0.1696 10.699628,-0.8417 16.043452,-1.9391 10.687649,-2.1946 21.280393,-6.0901 31.321531,-11.1976 10.041135,-5.1075 19.530665,-11.4272 27.982325,-18.5512 8.45165,-7.124 15.86542,-15.0524 21.70441,-23.4652 2.91949,-4.2064 5.44529,-8.5339 7.49431,-12.9554 2.04903,-4.4215 3.62128,-8.9369 4.60218,-13.5187 0.9809,-4.5817 1.37045,-9.2296 1.03308,-13.8408 -0.16868,-2.3056 -0.5191,-4.6021 -1.07079,-6.8814 -0.55169,-2.2794 -1.30465,-4.5417 -2.23904,-6.7048" />
      <path
         inkscape:connector-curvature="0"
         id="path970"
         style="fill:none;stroke:#ff0000;stroke-width:0.37795275;stroke-linecap:round;stroke-miterlimit:4;stroke-dasharray:none;stroke-opacity:1"
         d="m 158.67306,1083.5972 c -0.803,-1.8944 -1.61132,-3.8183 -2.39074,-5.691 -0.77941,-1.8726 -1.52992,-3.694 -2.26018,-5.4846 -1.46053,-3.5812 -2.84008,-7.0393 -4.13366,-10.3625 -1.29357,-3.3233 -2.50117,-6.5117 -3.62622,-9.5733 -1.12505,-3.0616 -2.16756,-5.9964 -3.12877,-8.8069 -1.92241,-5.6211 -3.51961,-10.7453 -4.80673,-15.3982 -1.28712,-4.6528 -2.26415,-8.8342 -2.95106,-12.5598 -0.6869,-3.7257 -1.08367,-6.9956 -1.22616,-9.8155 -0.14249,-2.8199 -0.0307,-5.1899 0.25883,-7.12056 0.28955,-1.93069 0.75685,-3.4221 1.29872,-4.59498 0.54186,-1.17288 1.1583,-2.02723 1.92119,-2.78361 0.7629,-0.75639 1.67226,-1.41481 2.88217,-2.01208 1.2099,-0.59728 2.72035,-1.13341 4.54056,-1.55043 3.64042,-0.83402 8.5199,-1.19158 14.32539,-1.13338 2.90275,0.0291 6.037,0.16214 9.37368,0.36033 3.33667,0.19819 6.87577,0.46153 10.59834,0.75582 3.72257,0.29429 7.6286,0.61953 11.68456,0.93676 2.02798,0.15862 4.09344,0.31524 6.21304,0.46601 2.11959,0.15077 4.29332,0.2957 6.44109,0.42618" />
      <path
         inkscape:connector-curvature="0"
         id="path972"
         style="fill:none;stroke:#ff0000;stroke-width:0.37795275;stroke-linecap:round;stroke-miterlimit:4;stroke-dasharray:none;stroke-opacity:1"
         d="m 203.68711,989.65546 q 61.46292,2.08492 106.9899,-17.28506" />
      <path
         inkscape:connector-curvature="0"
         id="path974"
         style="fill:none;stroke:#ff0000;stroke-width:0.37795275;stroke-linecap:round;stroke-miterlimit:4;stroke-dasharray:none;stroke-opacity:1"
         d="m 310.67701,972.3704 c 1.55556,-0.6119 3.11343,-1.2734 4.6155,-1.96082 1.50207,-0.68743 2.94834,-1.4008 4.35345,-2.14505 2.81022,-1.48852 5.45578,-3.10061 7.92584,-4.82472 2.47006,-1.7241 4.76461,-3.56022 6.88606,-5.49929 2.12144,-1.93907 4.06979,-3.98109 5.84329,-6.11251 3.54701,-4.26283 6.39465,-8.88325 8.57422,-13.72968 2.17957,-4.84643 3.69106,-9.91887 4.61328,-15.10339 0.92221,-5.18453 1.25514,-10.48113 1.08554,-15.81321 -0.1696,-5.33208 -0.84174,-10.69963 -1.93907,-16.04345 -2.19467,-10.68765 -6.09009,-21.2804 -11.19763,-31.32153 -5.10754,-10.04114 -11.42719,-19.53067 -18.55119,-27.98233 -7.12401,-8.45165 -15.05237,-15.86542 -23.4652,-21.70441 -4.20641,-2.91949 -8.53394,-5.44528 -12.95543,-7.49431 -4.42148,-2.04902 -8.93692,-3.62128 -13.51863,-4.60218 -4.58171,-0.9809 -9.2297,-1.37045 -13.8409,-1.03308 -2.3056,0.16868 -4.602,0.5191 -6.88137,1.07079 -2.27937,0.55169 -4.54171,1.30465 -6.70477,2.23905" />
      <path
         inkscape:connector-curvature="0"
         id="path976"
         style="fill:none;stroke:#ff0000;stroke-width:0.37795275;stroke-linecap:round;stroke-miterlimit:4;stroke-dasharray:none;stroke-opacity:1"
         d="m 245.52,800.31028 c -1.89443,0.80299 -3.81834,1.61131 -5.69099,2.39073 -1.87265,0.77941 -3.69404,1.52992 -5.48464,2.26019 -3.5812,1.46052 -7.03925,2.84007 -10.3625,4.13365 -3.32325,1.29357 -6.5117,2.50117 -9.5733,3.62622 -3.06161,1.12506 -5.99638,2.16756 -8.80692,3.12877 -5.62109,1.92241 -10.7453,3.51961 -15.39812,4.80673 -4.65281,1.28712 -8.83423,2.26416 -12.55988,2.95106 -3.72565,0.6869 -6.99553,1.08367 -9.81545,1.22616 -2.81992,0.1425 -5.18989,0.0307 -7.12058,-0.25883 -1.93068,-0.28954 -3.4221,-0.75685 -4.59497,-1.29871 -1.17288,-0.54187 -2.02723,-1.15831 -2.78361,-1.9212 -0.75639,-0.7629 -1.41481,-1.67226 -2.01209,-2.88216 -0.59727,-1.20991 -1.1334,-2.72036 -1.55042,-4.54057 -0.83403,-3.64042 -1.19158,-8.5199 -1.13338,-14.32539 0.0291,-2.90274 0.16214,-6.037 0.36033,-9.37367 0.19819,-3.33668 0.46153,-6.87578 0.75582,-10.59835 0.29429,-3.72257 0.61953,-7.6286 0.93676,-11.68456 0.15862,-2.02798 0.31524,-4.09344 0.46601,-6.21304 0.15077,-2.11959 0.2957,-4.29332 0.42618,-6.44109" />
      <path
         inkscape:connector-curvature="0"
         id="path978"
         style="fill:none;stroke:#ff0000;stroke-width:0.37795275;stroke-linecap:round;stroke-miterlimit:4;stroke-dasharray:none;stroke-opacity:1"
         d="m 151.57825,755.29622 q 2.08492,-61.46292 -17.28507,-106.9899" />
      <path
         inkscape:connector-curvature="0"
         id="path980"
         style="fill:none;stroke:#ff0000;stroke-width:0.37795275;stroke-linecap:round;stroke-miterlimit:4;stroke-dasharray:none;stroke-opacity:1"
         d="m 134.29318,648.30632 c -0.6119,-1.55556 -1.27339,-3.11343 -1.96082,-4.6155 -0.68742,-1.50207 -1.40079,-2.94834 -2.14504,-4.35345 -1.48852,-2.81022 -3.10061,-5.45578 -4.82472,-7.92584 -1.7241,-2.47006 -3.56022,-4.76461 -5.49929,-6.88606 -1.93907,-2.12144 -3.98109,-4.06979 -6.11251,-5.84329 -4.26283,-3.54701 -8.88325,-6.39465 -13.72968,-8.57422 -4.846432,-2.17957 -9.918872,-3.69106 -15.103395,-4.61327 -5.184523,-0.92222 -10.481128,-1.25515 -15.813206,-1.08555 -5.332077,0.1696 -10.699628,0.84174 -16.043453,1.93908 -10.687648,2.19466 -21.280392,6.09009 -31.32153,11.19762 -10.041138,5.10754 -19.53067,11.42719 -27.982323,18.5512 -8.451652,7.124 -15.865424,15.05237 -21.704409,23.46519 -2.919493,4.20642 -5.445289,8.53394 -7.494314,12.95543 -2.049025,4.42148 -3.621278,8.93692 -4.602179,13.51863 -0.980902,4.58172 -1.370452,9.2297 -1.033082,13.8409 0.168684,2.3056 0.519099,4.602 1.070788,6.88138 0.55169,2.27937 1.304655,4.5417 2.239048,6.70476" />
      <path
         inkscape:connector-curvature="0"
         id="path982"
         style="fill:none;stroke:#ff0000;stroke-width:0.37795275;stroke-linecap:round;stroke-miterlimit:4;stroke-dasharray:none;stroke-opacity:1"
         d="m -37.766935,713.46333 c 0.802993,1.89443 1.611316,3.81834 2.390732,5.69099 0.779416,1.87265 1.529924,3.69404 2.260188,5.48464 1.460527,3.58121 2.840077,7.03926 4.133651,10.3625 1.293574,3.32325 2.501173,6.5117 3.626226,9.57331 1.125053,3.0616 2.16756,5.99637 3.128765,8.80691 1.922411,5.62109 3.519613,10.7453 4.806732,15.39812 1.28712,4.65281 2.264156,8.83423 2.951058,12.55988 0.686903,3.72565 1.083673,6.99553 1.226165,9.81545 0.142493,2.81993 0.03071,5.18989 -0.258834,7.12058 -0.289543,1.93069 -0.756846,3.4221 -1.298714,4.59498 -0.541867,1.17287 -1.1583,2.02722 -1.921197,2.78361 -0.762897,0.75638 -1.672257,1.4148 -2.882162,2.01208 -1.209905,0.59727 -2.720354,1.13341 -4.540565,1.55042 -3.640423,0.83403 -8.519896,1.19158 -14.32539,1.13338 -2.902746,-0.0291 -6.036998,-0.16214 -9.373675,-0.36033 -3.336677,-0.19819 -6.875778,-0.46153 -10.598346,-0.75582 -3.722567,-0.29428 -7.628601,-0.61952 -11.68456,-0.93676 -2.02798,-0.15862 -4.093442,-0.31524 -6.213037,-0.46601 -2.119596,-0.15077 -4.293326,-0.29569 -6.441092,-0.42618" />
      <path
         inkscape:connector-curvature="0"
         id="path984"
         style="fill:none;stroke:#ff0000;stroke-width:0.37795275;stroke-linecap:round;stroke-miterlimit:4;stroke-dasharray:none;stroke-opacity:1"
         d="m -82.78099,807.40508 q -61.46292,-2.08492 -106.9899,17.28507" />
      <path
         inkscape:connector-curvature="0"
         id="path986"
         style="fill:none;stroke:#ff0000;stroke-width:0.37795275;stroke-linecap:round;stroke-miterlimit:4;stroke-dasharray:none;stroke-opacity:1"
         d="m -189.77089,824.69015 c -1.55556,0.6119 -3.11343,1.27339 -4.6155,1.96082 -1.50207,0.68742 -2.94834,1.40079 -4.35345,2.14504 -2.81022,1.48852 -5.45578,3.10061 -7.92584,4.82472 -2.47006,1.72411 -4.76461,3.56023 -6.88606,5.4993 -2.12144,1.93907 -4.06979,3.98109 -5.84329,6.1125 -3.54701,4.26283 -6.39465,8.88325 -8.57422,13.72968 -2.17957,4.84643 -3.69106,9.91887 -4.61327,15.1034 -0.92222,5.18452 -1.25515,10.48112 -1.08555,15.8132 0.1696,5.33208 0.84174,10.69963 1.93908,16.04346 2.19466,10.68764 6.09009,21.28039 11.19762,31.32153 5.10754,10.04113 11.42719,19.53067 18.5512,27.98232 7.124,8.45165 15.05237,15.86542 23.46519,21.70441 4.20642,2.91949 8.53394,5.44529 12.95543,7.49431 4.42148,2.04903 8.93692,3.62128 13.51863,4.60218 4.58172,0.98088 9.2297,1.37048 13.8409,1.03308 2.3056,-0.16868 4.602,-0.5191 6.88137,-1.07078 2.27938,-0.55169 4.54171,-1.30466 6.70477,-2.23905" />
      <path
         inkscape:connector-curvature="0"
         id="path988"
         style="fill:none;stroke:#ff0000;stroke-width:0.37795275;stroke-linecap:round;stroke-miterlimit:4;stroke-dasharray:none;stroke-opacity:1"
         d="m -124.61388,996.75027 c 1.89443,-0.803 3.81834,-1.61132 5.69099,-2.39073 1.87265,-0.77942 3.69404,-1.52993 5.48464,-2.26019 3.5812,-1.46053 7.03925,-2.84008 10.3625,-4.13365 3.323252,-1.29358 6.511699,-2.50118 9.573305,-3.62623 3.061606,-1.12505 5.996371,-2.16756 8.806916,-3.12877 5.62109,-1.92241 10.745301,-3.51961 15.398116,-4.80673 4.652816,-1.28712 8.834235,-2.26415 12.559884,-2.95106 3.72565,-0.6869 6.995529,-1.08367 9.815452,-1.22616 2.819922,-0.14249 5.189887,-0.0307 7.120574,0.25883 1.930688,0.28955 3.422099,0.75685 4.594978,1.29872 1.172879,0.54186 2.027226,1.1583 2.783609,1.9212 0.756384,0.76289 1.414805,1.67225 2.012082,2.88216 0.597276,1.2099 1.133408,2.72035 1.550422,4.54056 0.834028,3.64042 1.191584,8.5199 1.133383,14.32539 -0.0291,2.90279 -0.162141,6.03699 -0.360331,9.37369 -0.198189,3.3367 -0.461528,6.8758 -0.755817,10.5983 -0.294289,3.7226 -0.619528,7.6286 -0.936764,11.6846 -0.158618,2.028 -0.315235,4.0934 -0.466006,6.213 -0.150772,2.1196 -0.295698,4.2934 -0.426179,6.4411" />
      <path
         inkscape:connector-curvature="0"
         id="path990"
         style="fill:none;stroke:#ff0000;stroke-width:0.37795275;stroke-linecap:round;stroke-miterlimit:4;stroke-dasharray:none;stroke-opacity:1"
         d="m -30.672126,1041.7643 q -2.084921,61.4629 17.285063,106.9899" />
      <path
         inkscape:connector-curvature="0"
         id="path992"
         style="fill:none;stroke:#ff0000;stroke-width:0.37795275;stroke-linecap:round;stroke-miterlimit:4;stroke-dasharray:none;stroke-opacity:1"
         d="m 96.324663,810.69382 a 35.905512,35.905512 0 1 0 -71.811024,0 35.905512,35.905512 0 1 0 71.811024,0 z" />
    </g>
    <g
       id="g933"
       transform="translate(231.80762,-598.81624)"
       style="fill:none;stroke:#ff0000;stroke-width:0.37795275;stroke-miterlimit:4;stroke-dasharray:none;stroke-opacity:1">
      <path
         id="path832"
         style="fill:none;stroke:#ff0000;stroke-width:0.37795275;stroke-linecap:round;stroke-miterlimit:4;stroke-dasharray:none;stroke-opacity:1"
         d="m -85.058751,824.23229 a 5.669291,5.669291 0 1 0 -11.338582,0 5.669291,5.669291 0 1 0 11.338582,0 z"
         inkscape:connector-curvature="0" />
      <path
         id="path834"
         style="fill:none;stroke:#ff0000;stroke-width:0.37795275;stroke-linecap:round;stroke-miterlimit:4;stroke-dasharray:none;stroke-opacity:1"
         d="m -85.058751,965.29923 a 5.669291,5.669291 0 1 0 -11.338582,0 5.669291,5.669291 0 1 0 11.338582,0 z"
         inkscape:connector-curvature="0" />
      <path
         id="path836"
         style="fill:none;stroke:#ff0000;stroke-width:0.37795275;stroke-linecap:round;stroke-miterlimit:4;stroke-dasharray:none;stroke-opacity:1"
         d="m -8.175629,1049.7114 a 5.669291,5.669291 0 1 0 -11.338582,0 5.669291,5.669291 0 1 0 11.338582,0 z"
         inkscape:connector-curvature="0" />
      <path
         id="path838"
         style="fill:none;stroke:#ff0000;stroke-width:0.37795275;stroke-linecap:round;stroke-miterlimit:4;stroke-dasharray:none;stroke-opacity:1"
         d="m 132.89131,1049.7114 a 5.6692915,5.6692915 0 1 0 -11.33858,0 5.6692915,5.6692915 0 1 0 11.33858,0 z"
         inkscape:connector-curvature="0" />
      <path
         id="path840"
         style="fill:none;stroke:#ff0000;stroke-width:0.37795275;stroke-linecap:round;stroke-miterlimit:4;stroke-dasharray:none;stroke-opacity:1"
         d="m 217.30345,972.82825 a 5.6692915,5.6692915 0 1 0 -11.33858,0 5.6692915,5.6692915 0 1 0 11.33858,0 z"
         inkscape:connector-curvature="0" />
      <path
         id="path842"
         style="fill:none;stroke:#ff0000;stroke-width:0.37795275;stroke-linecap:round;stroke-miterlimit:4;stroke-dasharray:none;stroke-opacity:1"
         d="m 217.30345,831.76131 a 5.6692915,5.6692915 0 1 0 -11.33858,0 5.6692915,5.6692915 0 1 0 11.33858,0 z"
         inkscape:connector-curvature="0" />
      <path
         id="path844"
         style="fill:none;stroke:#ff0000;stroke-width:0.37795275;stroke-linecap:round;stroke-miterlimit:4;stroke-dasharray:none;stroke-opacity:1"
         d="m 140.42033,747.34917 a 5.669291,5.669291 0 1 0 -11.33858,0 5.669291,5.669291 0 1 0 11.33858,0 z"
         inkscape:connector-curvature="0" />
      <path
         id="path846"
         style="fill:none;stroke:#ff0000;stroke-width:0.37795275;stroke-linecap:round;stroke-miterlimit:4;stroke-dasharray:none;stroke-opacity:1"
         d="m -0.646606,747.34917 a 5.6692915,5.6692915 0 1 0 -11.338583,0 5.6692915,5.6692915 0 1 0 11.338583,0 z"
         inkscape:connector-curvature="0" />
      <path
         id="path848"
         style="fill:none;stroke:#ff0000;stroke-width:0.37795275;stroke-linecap:round;stroke-miterlimit:4;stroke-dasharray:none;stroke-opacity:1"
         d="M 13.175057,763.44972 V 774.7883"
         inkscape:connector-curvature="0" />
      <path
         id="path850"
         style="fill:none;stroke:#ff0000;stroke-width:0.37795275;stroke-linecap:round;stroke-miterlimit:4;stroke-dasharray:none;stroke-opacity:1"
         d="M 98.214427,763.44972 H 13.175057"
         inkscape:connector-curvature="0" />
      <path
         id="path852"
         style="fill:none;stroke:#ff0000;stroke-width:0.37795275;stroke-linecap:round;stroke-miterlimit:4;stroke-dasharray:none;stroke-opacity:1"
         d="M 98.214427,774.7883 V 763.44972"
         inkscape:connector-curvature="0" />
      <path
         id="path854"
         style="fill:none;stroke:#ff0000;stroke-width:0.37795275;stroke-linecap:round;stroke-miterlimit:4;stroke-dasharray:none;stroke-opacity:1"
         d="m 13.175057,774.7883 h 85.03937"
         inkscape:connector-curvature="0" />
      <path
         id="path856"
         style="fill:none;stroke:#ff0000;stroke-width:0.37795275;stroke-linecap:round;stroke-miterlimit:4;stroke-dasharray:none;stroke-opacity:1"
         d="m 50.02545,857.64256 a 4.7244095,4.7244095 0 1 0 -9.448819,0 4.7244095,4.7244095 0 1 0 9.448819,0 z"
         inkscape:connector-curvature="0" />
      <path
         id="path858"
         style="fill:none;stroke:#ff0000;stroke-width:0.37795275;stroke-linecap:round;stroke-miterlimit:4;stroke-dasharray:none;stroke-opacity:1"
         d="M 98.214427,880.5087 H 22.623876"
         inkscape:connector-curvature="0" />
      <path
         id="path860"
         style="fill:none;stroke:#ff0000;stroke-width:0.37795275;stroke-linecap:round;stroke-miterlimit:4;stroke-dasharray:none;stroke-opacity:1"
         d="M 98.214427,956.09925 V 880.5087"
         inkscape:connector-curvature="0" />
      <path
         id="path862"
         style="fill:none;stroke:#ff0000;stroke-width:0.37795275;stroke-linecap:round;stroke-miterlimit:4;stroke-dasharray:none;stroke-opacity:1"
         d="M 22.623876,956.09925 H 98.214427"
         inkscape:connector-curvature="0" />
      <path
         id="path864"
         style="fill:none;stroke:#ff0000;stroke-width:0.37795275;stroke-linecap:round;stroke-miterlimit:4;stroke-dasharray:none;stroke-opacity:1"
         d="m 22.623876,880.5087 v 75.59055"
         inkscape:connector-curvature="0" />
      <path
         id="path866"
         style="fill:none;stroke:#ff0000;stroke-width:0.37795275;stroke-linecap:round;stroke-miterlimit:4;stroke-dasharray:none;stroke-opacity:1"
         d="m -13.387063,1148.7542 c 0.611899,1.5556 1.273391,3.1135 1.960818,4.6155 0.687428,1.5021 1.400792,2.9484 2.145049,4.3535 1.488516,2.8102 3.100609,5.4558 4.824715,7.9258 1.724107,2.4701 3.560226,4.7646 5.499296,6.8861 1.93907,2.1214 3.981089,4.0698 6.112506,5.8433 4.262833,3.547 8.883252,6.3946 13.729682,8.5742 4.84643,2.1796 9.91887,3.691 15.103393,4.6133 5.184522,0.9222 10.481128,1.2551 15.813206,1.0855 5.332077,-0.1696 10.699628,-0.8417 16.043452,-1.9391 10.687649,-2.1946 21.280393,-6.0901 31.321531,-11.1976 10.041135,-5.1075 19.530665,-11.4272 27.982325,-18.5512 8.45165,-7.124 15.86542,-15.0524 21.70441,-23.4652 2.91949,-4.2064 5.44529,-8.5339 7.49431,-12.9554 2.04903,-4.4215 3.62128,-8.9369 4.60218,-13.5187 0.9809,-4.5817 1.37045,-9.2296 1.03308,-13.8408 -0.16868,-2.3056 -0.5191,-4.6021 -1.07079,-6.8814 -0.55169,-2.2794 -1.30465,-4.5417 -2.23904,-6.7048"
         inkscape:connector-curvature="0" />
      <path
         id="path868"
         style="fill:none;stroke:#ff0000;stroke-width:0.37795275;stroke-linecap:round;stroke-miterlimit:4;stroke-dasharray:none;stroke-opacity:1"
         d="m 158.67306,1083.5972 c -0.803,-1.8944 -1.61132,-3.8183 -2.39074,-5.691 -0.77941,-1.8726 -1.52992,-3.694 -2.26018,-5.4846 -1.46053,-3.5812 -2.84008,-7.0393 -4.13366,-10.3625 -1.29357,-3.3233 -2.50117,-6.5117 -3.62622,-9.5733 -1.12505,-3.0616 -2.16756,-5.9964 -3.12877,-8.8069 -1.92241,-5.6211 -3.51961,-10.7453 -4.80673,-15.3982 -1.28712,-4.6528 -2.26415,-8.8342 -2.95106,-12.5598 -0.6869,-3.7257 -1.08367,-6.9956 -1.22616,-9.8155 -0.14249,-2.8199 -0.0307,-5.1899 0.25883,-7.12056 0.28955,-1.93069 0.75685,-3.4221 1.29872,-4.59498 0.54186,-1.17288 1.1583,-2.02723 1.92119,-2.78361 0.7629,-0.75639 1.67226,-1.41481 2.88217,-2.01208 1.2099,-0.59728 2.72035,-1.13341 4.54056,-1.55043 3.64042,-0.83402 8.5199,-1.19158 14.32539,-1.13338 2.90275,0.0291 6.037,0.16214 9.37368,0.36033 3.33667,0.19819 6.87577,0.46153 10.59834,0.75582 3.72257,0.29429 7.6286,0.61953 11.68456,0.93676 2.02798,0.15862 4.09344,0.31524 6.21304,0.46601 2.11959,0.15077 4.29332,0.2957 6.44109,0.42618"
         inkscape:connector-curvature="0" />
      <path
         id="path870"
         style="fill:none;stroke:#ff0000;stroke-width:0.37795275;stroke-linecap:round;stroke-miterlimit:4;stroke-dasharray:none;stroke-opacity:1"
         d="m 203.68711,989.65546 q 61.46292,2.08492 106.9899,-17.28506"
         inkscape:connector-curvature="0" />
      <path
         id="path872"
         style="fill:none;stroke:#ff0000;stroke-width:0.37795275;stroke-linecap:round;stroke-miterlimit:4;stroke-dasharray:none;stroke-opacity:1"
         d="m 310.67701,972.3704 c 1.55556,-0.6119 3.11343,-1.2734 4.6155,-1.96082 1.50207,-0.68743 2.94834,-1.4008 4.35345,-2.14505 2.81022,-1.48852 5.45578,-3.10061 7.92584,-4.82472 2.47006,-1.7241 4.76461,-3.56022 6.88606,-5.49929 2.12144,-1.93907 4.06979,-3.98109 5.84329,-6.11251 3.54701,-4.26283 6.39465,-8.88325 8.57422,-13.72968 2.17957,-4.84643 3.69106,-9.91887 4.61328,-15.10339 0.92221,-5.18453 1.25514,-10.48113 1.08554,-15.81321 -0.1696,-5.33208 -0.84174,-10.69963 -1.93907,-16.04345 -2.19467,-10.68765 -6.09009,-21.2804 -11.19763,-31.32153 -5.10754,-10.04114 -11.42719,-19.53067 -18.55119,-27.98233 -7.12401,-8.45165 -15.05237,-15.86542 -23.4652,-21.70441 -4.20641,-2.91949 -8.53394,-5.44528 -12.95543,-7.49431 -4.42148,-2.04902 -8.93692,-3.62128 -13.51863,-4.60218 -4.58171,-0.9809 -9.2297,-1.37045 -13.8409,-1.03308 -2.3056,0.16868 -4.602,0.5191 -6.88137,1.07079 -2.27937,0.55169 -4.54171,1.30465 -6.70477,2.23905"
         inkscape:connector-curvature="0" />
      <path
         id="path874"
         style="fill:none;stroke:#ff0000;stroke-width:0.37795275;stroke-linecap:round;stroke-miterlimit:4;stroke-dasharray:none;stroke-opacity:1"
         d="m 245.52,800.31028 c -1.89443,0.80299 -3.81834,1.61131 -5.69099,2.39073 -1.87265,0.77941 -3.69404,1.52992 -5.48464,2.26019 -3.5812,1.46052 -7.03925,2.84007 -10.3625,4.13365 -3.32325,1.29357 -6.5117,2.50117 -9.5733,3.62622 -3.06161,1.12506 -5.99638,2.16756 -8.80692,3.12877 -5.62109,1.92241 -10.7453,3.51961 -15.39812,4.80673 -4.65281,1.28712 -8.83423,2.26416 -12.55988,2.95106 -3.72565,0.6869 -6.99553,1.08367 -9.81545,1.22616 -2.81992,0.1425 -5.18989,0.0307 -7.12058,-0.25883 -1.93068,-0.28954 -3.4221,-0.75685 -4.59497,-1.29871 -1.17288,-0.54187 -2.02723,-1.15831 -2.78361,-1.9212 -0.75639,-0.7629 -1.41481,-1.67226 -2.01209,-2.88216 -0.59727,-1.20991 -1.1334,-2.72036 -1.55042,-4.54057 -0.83403,-3.64042 -1.19158,-8.5199 -1.13338,-14.32539 0.0291,-2.90274 0.16214,-6.037 0.36033,-9.37367 0.19819,-3.33668 0.46153,-6.87578 0.75582,-10.59835 0.29429,-3.72257 0.61953,-7.6286 0.93676,-11.68456 0.15862,-2.02798 0.31524,-4.09344 0.46601,-6.21304 0.15077,-2.11959 0.2957,-4.29332 0.42618,-6.44109"
         inkscape:connector-curvature="0" />
      <path
         id="path876"
         style="fill:none;stroke:#ff0000;stroke-width:0.37795275;stroke-linecap:round;stroke-miterlimit:4;stroke-dasharray:none;stroke-opacity:1"
         d="m 151.57825,755.29622 q 2.08492,-61.46292 -17.28507,-106.9899"
         inkscape:connector-curvature="0" />
      <path
         id="path878"
         style="fill:none;stroke:#ff0000;stroke-width:0.37795275;stroke-linecap:round;stroke-miterlimit:4;stroke-dasharray:none;stroke-opacity:1"
         d="m 134.29318,648.30632 c -0.6119,-1.55556 -1.27339,-3.11343 -1.96082,-4.6155 -0.68742,-1.50207 -1.40079,-2.94834 -2.14504,-4.35345 -1.48852,-2.81022 -3.10061,-5.45578 -4.82472,-7.92584 -1.7241,-2.47006 -3.56022,-4.76461 -5.49929,-6.88606 -1.93907,-2.12144 -3.98109,-4.06979 -6.11251,-5.84329 -4.26283,-3.54701 -8.88325,-6.39465 -13.72968,-8.57422 -4.846432,-2.17957 -9.918872,-3.69106 -15.103395,-4.61327 -5.184523,-0.92222 -10.481128,-1.25515 -15.813206,-1.08555 -5.332077,0.1696 -10.699628,0.84174 -16.043453,1.93908 -10.687648,2.19466 -21.280392,6.09009 -31.32153,11.19762 -10.041138,5.10754 -19.53067,11.42719 -27.982323,18.5512 -8.451652,7.124 -15.865424,15.05237 -21.704409,23.46519 -2.919493,4.20642 -5.445289,8.53394 -7.494314,12.95543 -2.049025,4.42148 -3.621278,8.93692 -4.602179,13.51863 -0.980902,4.58172 -1.370452,9.2297 -1.033082,13.8409 0.168684,2.3056 0.519099,4.602 1.070788,6.88138 0.55169,2.27937 1.304655,4.5417 2.239048,6.70476"
         inkscape:connector-curvature="0" />
      <path
         id="path880"
         style="fill:none;stroke:#ff0000;stroke-width:0.37795275;stroke-linecap:round;stroke-miterlimit:4;stroke-dasharray:none;stroke-opacity:1"
         d="m -37.766935,713.46333 c 0.802993,1.89443 1.611316,3.81834 2.390732,5.69099 0.779416,1.87265 1.529924,3.69404 2.260188,5.48464 1.460527,3.58121 2.840077,7.03926 4.133651,10.3625 1.293574,3.32325 2.501173,6.5117 3.626226,9.57331 1.125053,3.0616 2.16756,5.99637 3.128765,8.80691 1.922411,5.62109 3.519613,10.7453 4.806732,15.39812 1.28712,4.65281 2.264156,8.83423 2.951058,12.55988 0.686903,3.72565 1.083673,6.99553 1.226165,9.81545 0.142493,2.81993 0.03071,5.18989 -0.258834,7.12058 -0.289543,1.93069 -0.756846,3.4221 -1.298714,4.59498 -0.541867,1.17287 -1.1583,2.02722 -1.921197,2.78361 -0.762897,0.75638 -1.672257,1.4148 -2.882162,2.01208 -1.209905,0.59727 -2.720354,1.13341 -4.540565,1.55042 -3.640423,0.83403 -8.519896,1.19158 -14.32539,1.13338 -2.902746,-0.0291 -6.036998,-0.16214 -9.373675,-0.36033 -3.336677,-0.19819 -6.875778,-0.46153 -10.598346,-0.75582 -3.722567,-0.29428 -7.628601,-0.61952 -11.68456,-0.93676 -2.02798,-0.15862 -4.093442,-0.31524 -6.213037,-0.46601 -2.119596,-0.15077 -4.293326,-0.29569 -6.441092,-0.42618"
         inkscape:connector-curvature="0" />
      <path
         id="path882"
         style="fill:none;stroke:#ff0000;stroke-width:0.37795275;stroke-linecap:round;stroke-miterlimit:4;stroke-dasharray:none;stroke-opacity:1"
         d="m -82.78099,807.40508 q -61.46292,-2.08492 -106.9899,17.28507"
         inkscape:connector-curvature="0" />
      <path
         id="path884"
         style="fill:none;stroke:#ff0000;stroke-width:0.37795275;stroke-linecap:round;stroke-miterlimit:4;stroke-dasharray:none;stroke-opacity:1"
         d="m -189.77089,824.69015 c -1.55556,0.6119 -3.11343,1.27339 -4.6155,1.96082 -1.50207,0.68742 -2.94834,1.40079 -4.35345,2.14504 -2.81022,1.48852 -5.45578,3.10061 -7.92584,4.82472 -2.47006,1.72411 -4.76461,3.56023 -6.88606,5.4993 -2.12144,1.93907 -4.06979,3.98109 -5.84329,6.1125 -3.54701,4.26283 -6.39465,8.88325 -8.57422,13.72968 -2.17957,4.84643 -3.69106,9.91887 -4.61327,15.1034 -0.92222,5.18452 -1.25515,10.48112 -1.08555,15.8132 0.1696,5.33208 0.84174,10.69963 1.93908,16.04346 2.19466,10.68764 6.09009,21.28039 11.19762,31.32153 5.10754,10.04113 11.42719,19.53067 18.5512,27.98232 7.124,8.45165 15.05237,15.86542 23.46519,21.70441 4.20642,2.91949 8.53394,5.44529 12.95543,7.49431 4.42148,2.04903 8.93692,3.62128 13.51863,4.60218 4.58172,0.98088 9.2297,1.37048 13.8409,1.03308 2.3056,-0.16868 4.602,-0.5191 6.88137,-1.07078 2.27938,-0.55169 4.54171,-1.30466 6.70477,-2.23905"
         inkscape:connector-curvature="0" />
      <path
         id="path886"
         style="fill:none;stroke:#ff0000;stroke-width:0.37795275;stroke-linecap:round;stroke-miterlimit:4;stroke-dasharray:none;stroke-opacity:1"
         d="m -124.61388,996.75027 c 1.89443,-0.803 3.81834,-1.61132 5.69099,-2.39073 1.87265,-0.77942 3.69404,-1.52993 5.48464,-2.26019 3.5812,-1.46053 7.03925,-2.84008 10.3625,-4.13365 3.323252,-1.29358 6.511699,-2.50118 9.573305,-3.62623 3.061606,-1.12505 5.996371,-2.16756 8.806916,-3.12877 5.62109,-1.92241 10.745301,-3.51961 15.398116,-4.80673 4.652816,-1.28712 8.834235,-2.26415 12.559884,-2.95106 3.72565,-0.6869 6.995529,-1.08367 9.815452,-1.22616 2.819922,-0.14249 5.189887,-0.0307 7.120574,0.25883 1.930688,0.28955 3.422099,0.75685 4.594978,1.29872 1.172879,0.54186 2.027226,1.1583 2.783609,1.9212 0.756384,0.76289 1.414805,1.67225 2.012082,2.88216 0.597276,1.2099 1.133408,2.72035 1.550422,4.54056 0.834028,3.64042 1.191584,8.5199 1.133383,14.32539 -0.0291,2.90279 -0.162141,6.03699 -0.360331,9.37369 -0.198189,3.3367 -0.461528,6.8758 -0.755817,10.5983 -0.294289,3.7226 -0.619528,7.6286 -0.936764,11.6846 -0.158618,2.028 -0.315235,4.0934 -0.466006,6.213 -0.150772,2.1196 -0.295698,4.2934 -0.426179,6.4411"
         inkscape:connector-curvature="0" />
      <path
         id="path888"
         style="fill:none;stroke:#ff0000;stroke-width:0.37795275;stroke-linecap:round;stroke-miterlimit:4;stroke-dasharray:none;stroke-opacity:1"
         d="m -30.672126,1041.7643 q -2.084921,61.4629 17.285063,106.9899"
         inkscape:connector-curvature="0" />
      <path
         id="path890"
         style="fill:none;stroke:#ff0000;stroke-width:0.37795275;stroke-linecap:round;stroke-miterlimit:4;stroke-dasharray:none;stroke-opacity:1"
         d="m 90.655372,810.69382 a 30.236221,30.236221 0 1 0 -60.472441,0 30.236221,30.236221 0 1 0 60.472441,0 z"
         inkscape:connector-curvature="0" />
      <path
         id="path892"
         style="fill:none;stroke:#ff0000;stroke-width:0.37795275;stroke-linecap:round;stroke-miterlimit:4;stroke-dasharray:none;stroke-opacity:1"
         d="m 80.261671,857.64256 a 4.7244095,4.7244095 0 1 0 -9.448819,0 4.7244095,4.7244095 0 1 0 9.448819,0 z"
         inkscape:connector-curvature="0" />
    </g>
  </g>
</svg>
